# xmcd
#
# Track frame offsets:
#	150
#	19121
#	34587
#	58276
#	77596
#	96898
#	112887
#	128639
#	148613
#	162416
#	180655
#	201456
#
# Disc length: 2849 seconds
#
# Revision: 0
# Processed by: cddbd v1.5.1PL2 Copyright (c) Steve Scherf et al.
# Submitted via: MusicManager 7.3.0.0 
#
DISCID=a00b1f0c
DTITLE=Anastacia - Anastacia
DYEAR=2004
DGENRE=rock
TTITLE0=Seasons change
TTITLE1=Left outside alone
TTITLE2=Time
TTITLE3=Sick and tired
TTITLE4=Heavy on my heart
TTITLE5=I do
TTITLE6=Welcome to my truth
TTITLE7=Pretty little dumdum
TTITLE8=Sexy single
TTITLE9=Rearview
TTITLE10=Where do I belong
TTITLE11=Mayby today
EXTD=
EXTT0=
EXTT1=
EXTT2=
EXTT3=
EXTT4=
EXTT5=
EXTT6=
EXTT7=
EXTT8=
EXTT9=
EXTT10=
EXTT11=
PLAYORDER=
